<svg version="1.2" xmlns="http://www.w3.org/2000/svg" viewBox="0 0 512 512" width="512" height="512">
	<title>house</title>
	<style>
		.s0 { fill: #f44335;stroke: #000000;stroke-linejoin: round;stroke-width: 18 } 
		.s1 { fill: #ffffff;stroke: #000000;stroke-linejoin: round;stroke-width: 18 } 
		.s2 { fill: #000000;stroke: #000000;stroke-linejoin: round;stroke-width: 3 } 
		.s3 { fill: #02a9f4;stroke: #000000;stroke-linejoin: round;stroke-width: 18 } 
		.s4 { fill: #ffca00 } 
	</style>
	<g id="House" style="display: none">
		<path id="Tejado" class="s0" d="m17.6 200.5c-24 26.3 4.8 58.4 27.5 45.1 32.9-27.3 143.2-124.1 210.9-175.8 60.5 48.4 144.8 123.1 211.6 175.8 41.5 10.4 39.2-24 31.4-38.6-93.1-79.9-188.4-161.4-243-199.9-58.8 46.4-139.3 111.9-238.4 193.4z"/>
		<path id="chimenea" class="s0" d="m377.6 100.4c0-29.9-0.5-36.5 0.8-60.9 10.2-6.9 48.2-9.2 61.4 1 4.4 12.2 4.2 117.5 4.2 117.5 0 0-47.8-41.3-66.4-57.6z"/>
		<path id="Facahda" class="s1" d="m50.3 242.9c0 0 1.5 225.4 1.5 261.5 30 0 383.2-1.4 413.2-1.4 0-41.6-3-260.7-3-260.7l-206-170z"/>
		<path id="Door" class="s0" d="m195.1 505.2c0 0 0.9-179.9 0.9-209.3 7.7-32.6 116.9-29 119.1-0.8 0 31 0.8 209.5 0.8 209.5z"/>
		<path id="Pomo" class="s2" d="m234.3 416.1c-4.4 0-12.6-0.9-12.8-6.5 0-5.6 8.4-8 12.8-8 4.5 0 12.2 1.6 12.2 7.7 0.2 5.7-7.7 6.8-12.2 6.8z"/>
		<path id="Ventana.R" class="s3" d="m351 281.1c18.6 0 52.9 0 76 0 0 23.5 0 92.1 0 111.4-18.9-0.3-54.3 0-76 0 0-22.6 0.2-95.5 0-111.4z"/>
		<path id="Ventana.L" class="s3" d="m85 281.1c18.6 0 52.9 0 76 0 0 23.5 0 92.1 0 111.4-18.9-0.3-54.3 0-76 0 0-22.6 0.2-95.5 0-111.4z"/>
	</g>
	<g id="Footprint">
		<path id="Main" class="s4" d="m359.2 415.8c-29.7 19.6-33.9 52.1-53.9 65.3-29.2 22.4-67.1 44-90.7-4-18.7-38.2-10.2-157.1 1.9-181.8 13.1-33.4 46.5-62.3 92.1-60.1 27.4 0.7 148.6 46.1 167 65.6 23.3 22.2 19 54.7-12.9 77.3-43.9 29-71.6 16.6-103.5 37.7zm19.6-191.3c-20.5 0.1-49.4-31.5-51.6-76.9-2.6-55 19.6-78.3 47.3-81.4 40.9-4.7 56.5 63.8 54.4 92.2-2.9 40.5-26.7 66-50.1 66.1zm-218 34.7c-30.4 18.3-78.4-5.6-109.4-52.3-31.3-47.1-25.3-91.7-4.4-108.4 35-22.6 63.9-9.8 104 37.6 35.7 43.8 43.8 97.1 9.8 123.1zm4.3 102.6c-7.6 34.7-60.5 37-94.5 15.6-36.3-23-57.9-57.7-46.6-83.9 16.3-29.1 50.7-23.8 83.9-8.9 33.3 15 63 51 57.2 77.2zm117.1-187.3c-30.5 20.2-75.9-6.5-104.3-49.4-28.4-42.9-33.2-89.8-1.7-110.6 31.2-20.7 75.3 3.6 103.6 46.5 28.4 42.9 33.7 92.8 2.4 113.5z"/>
	</g>
</svg>